<svg width="259" height="235" viewBox="0 0 259 235" fill="none" xmlns="http://www.w3.org/2000/svg">
<path d="M141.003 175.473V232.498C141.003 233.602 141.899 234.498 143.003 234.498H250.95C253.712 234.498 255.95 232.259 255.95 229.498V207.64C255.95 207.151 255.771 206.678 255.446 206.312L180.463 121.874C179.613 120.917 178.097 120.993 177.347 122.029L142.903 169.609C141.668 171.315 141.003 173.367 141.003 175.473Z" fill="url(#paint0_linear_41_17)"/>
<path d="M216.583 66.948L183.31 113.2C182.768 113.954 182.816 114.982 183.426 115.682L252.443 194.824C253.658 196.217 255.95 195.358 255.95 193.51V114.168C255.95 113.724 255.802 113.292 255.53 112.942L219.786 66.8896C218.967 65.8341 217.363 65.8633 216.583 66.948Z" fill="url(#paint1_linear_41_17)"/>
<path d="M252.214 16.6096L223.046 60.047C222.561 60.7698 222.599 61.7237 223.14 62.4056L251.424 98.0242C252.595 99.4989 254.969 98.6858 254.99 96.8029L255.874 17.7469C255.896 15.7601 253.321 14.96 252.214 16.6096Z" fill="url(#paint2_linear_41_17)"/>
<path d="M96.9572 235H128.073C130.834 235 133.073 232.761 133.073 230V175.326C133.073 172.126 134.096 169.011 135.993 166.434L255.566 3.98882C256.213 3.11015 255.186 1.97829 254.249 2.53719L190.274 40.6956C188.588 41.7012 187.116 43.0279 185.941 44.6004L94.9405 166.407C93.0037 169 91.9572 172.149 91.9572 175.385V230C91.9572 232.761 94.1958 235 96.9572 235Z" fill="#19CB7A"/>
<path d="M51 235H82.1158C84.8772 235 87.1158 232.761 87.1158 230V175.326C87.1158 172.126 88.1389 169.011 90.0356 166.434L209.609 3.98882C210.256 3.11015 209.228 1.97829 208.291 2.53719L144.317 40.6956C142.631 41.7012 141.159 43.0279 139.984 44.6004L48.9832 166.407C47.0465 169 46 172.149 46 175.385V230C46 232.761 48.2386 235 51 235Z" fill="#19CB7A"/>
<path d="M4.99999 235H36.1158C38.8772 235 41.1158 232.761 41.1158 230V175.326C41.1158 172.126 42.1389 169.011 44.0356 166.434L163.609 3.98882C164.256 3.11015 163.228 1.97829 162.291 2.53719L98.3168 40.6956C96.6309 41.7012 95.1588 43.0279 93.984 44.6004L2.98324 166.407C1.04648 169 0 172.149 0 175.385V230C0 232.761 2.23857 235 4.99999 235Z" fill="#19CB7A"/>
<defs>
<linearGradient id="paint0_linear_41_17" x1="204.863" y1="137.585" x2="150.3" y2="271.318" gradientUnits="userSpaceOnUse">
<stop stop-color="#0F9CAC"/>
<stop offset="1" stop-color="#0D42A4"/>
</linearGradient>
<linearGradient id="paint1_linear_41_17" x1="233.472" y1="71.3034" x2="201.715" y2="146.019" gradientUnits="userSpaceOnUse">
<stop stop-color="#1FE661"/>
<stop offset="1" stop-color="#0F9CAC"/>
</linearGradient>
<linearGradient id="paint2_linear_41_17" x1="255.949" y1="17.0727" x2="229.657" y2="80.6661" gradientUnits="userSpaceOnUse">
<stop stop-color="#66FD98" stop-opacity="0.76"/>
<stop offset="1" stop-color="#1FE661" stop-opacity="0.9"/>
</linearGradient>
</defs>
</svg>
